<svg width="23" height="22" viewBox="0 0 23 22" fill="none" xmlns="http://www.w3.org/2000/svg">
<path d="M11.4883 5.68512C14.5009 5.68512 16.9875 8.17174 16.9875 11.1844C16.9875 14.2448 14.5009 16.6836 11.4883 16.6836C8.42783 16.6836 5.98903 14.2448 5.98903 11.1844C5.98903 8.17174 8.42783 5.68512 11.4883 5.68512ZM11.4883 14.7708C13.4489 14.7708 15.0269 13.1928 15.0269 11.1844C15.0269 9.22377 13.4489 7.64572 11.4883 7.64572C9.47986 7.64572 7.90182 9.22377 7.90182 11.1844C7.90182 13.1928 9.52768 14.7708 11.4883 14.7708ZM18.4699 5.49384C18.4699 6.21114 17.8961 6.78497 17.1788 6.78497C16.4615 6.78497 15.8877 6.21114 15.8877 5.49384C15.8877 4.77655 16.4615 4.20271 17.1788 4.20271C17.8961 4.20271 18.4699 4.77655 18.4699 5.49384ZM22.1042 6.78497C22.1999 8.55429 22.1999 13.8623 22.1042 15.6316C22.0086 17.3531 21.626 18.8355 20.3827 20.1266C19.1394 21.3699 17.6092 21.7525 15.8877 21.8481C14.1184 21.9438 8.81039 21.9438 7.04106 21.8481C5.31956 21.7525 3.83715 21.3699 2.54603 20.1266C1.30272 18.8355 0.920161 17.3531 0.824521 15.6316C0.728882 13.8623 0.728882 8.55429 0.824521 6.78497C0.920161 5.06347 1.30272 3.53324 2.54603 2.28993C3.83715 1.04662 5.31956 0.664068 7.04106 0.568429C8.81039 0.472789 14.1184 0.472789 15.8877 0.568429C17.6092 0.664068 19.1394 1.04662 20.3827 2.28993C21.626 3.53324 22.0086 5.06347 22.1042 6.78497ZM19.8089 17.4965C20.3827 16.1098 20.2393 12.7624 20.2393 11.1844C20.2393 9.65414 20.3827 6.30677 19.8089 4.87219C19.4263 3.96362 18.709 3.1985 17.8005 2.86377C16.3659 2.28993 13.0185 2.43339 11.4883 2.43339C9.91024 2.43339 6.56287 2.28993 5.1761 2.86377C4.21971 3.24632 3.50242 3.96362 3.11986 4.87219C2.54603 6.30677 2.68948 9.65414 2.68948 11.1844C2.68948 12.7624 2.54603 16.1098 3.11986 17.4965C3.50242 18.4529 4.21971 19.1702 5.1761 19.5528C6.56287 20.1266 9.91024 19.9832 11.4883 19.9832C13.0185 19.9832 16.3659 20.1266 17.8005 19.5528C18.709 19.1702 19.4741 18.4529 19.8089 17.4965Z" fill="#110B39"/>
</svg>
