<svg width="15" height="15" viewBox="0 0 15 15" fill="none" xmlns="http://www.w3.org/2000/svg">
<path d="M4.73332 12.9635C4.71492 12.9635 4.69038 12.9757 4.67198 12.9757C3.48205 12.3869 2.51293 11.4117 1.91797 10.2217C1.91797 10.2033 1.93024 10.1788 1.93024 10.1604C2.67854 10.3812 3.45138 10.5468 4.21809 10.6756C4.35303 11.4485 4.5125 12.2152 4.73332 12.9635Z" fill="#232323"/>
<path d="M12.8834 10.2279C12.2762 11.4485 11.2641 12.436 10.0312 13.031C10.2643 12.252 10.4606 11.4669 10.5894 10.6756C11.3623 10.5468 12.1228 10.3812 12.8711 10.1604C12.865 10.1849 12.8834 10.2095 12.8834 10.2279Z" fill="#232323"/>
<path d="M12.9325 4.86655C12.1596 4.63347 11.3807 4.44333 10.5894 4.30839C10.4606 3.51715 10.2705 2.73204 10.0312 1.96533C11.3009 2.57256 12.3252 3.59688 12.9325 4.86655Z" fill="#232323"/>
<path d="M4.7316 2.03281C4.51079 2.78111 4.35132 3.54168 4.22251 4.31453C3.43127 4.4372 2.64616 4.63348 1.86719 4.86655C2.46215 3.63369 3.44967 2.62164 4.67027 2.0144C4.68867 2.0144 4.7132 2.03281 4.7316 2.03281Z" fill="#232323"/>
<path d="M9.5391 4.18034C8.1161 4.02086 6.68082 4.02086 5.25781 4.18034C5.41115 3.34003 5.60743 2.49972 5.88345 1.69007C5.89571 1.641 5.88958 1.6042 5.89571 1.55513C6.38027 1.43859 6.8771 1.36499 7.39846 1.36499C7.91369 1.36499 8.41664 1.43859 8.89507 1.55513C8.9012 1.6042 8.9012 1.641 8.91347 1.69007C9.18949 2.50585 9.38576 3.34003 9.5391 4.18034Z" fill="#232323"/>
<path d="M4.08097 9.6392C3.23453 9.48586 2.40035 9.28958 1.59071 9.01357C1.54164 9.0013 1.50484 9.00744 1.45577 9.0013C1.33923 8.51674 1.26562 8.01992 1.26562 7.49856C1.26562 6.98333 1.33923 6.48037 1.45577 6.00194C1.50484 5.99581 1.54164 5.99581 1.59071 5.98354C2.40648 5.71366 3.23453 5.51125 4.08097 5.35791C3.92763 6.78092 3.92763 8.21619 4.08097 9.6392Z" fill="#232323"/>
<path d="M13.5341 7.49856C13.5341 8.01992 13.4605 8.51674 13.344 9.0013C13.2949 9.00744 13.2581 9.0013 13.209 9.01357C12.3932 9.28345 11.5591 9.48586 10.7188 9.6392C10.8782 8.21619 10.8782 6.78092 10.7188 5.35791C11.5591 5.51125 12.3994 5.70753 13.209 5.98354C13.2581 5.99581 13.2949 6.00194 13.344 6.00194C13.4605 6.4865 13.5341 6.98333 13.5341 7.49856Z" fill="#232323"/>
<path d="M9.5391 10.8167C9.38576 11.6631 9.18949 12.4973 8.91347 13.3069C8.9012 13.356 8.9012 13.3928 8.89507 13.4419C8.41664 13.5584 7.91369 13.632 7.39846 13.632C6.8771 13.632 6.38027 13.5584 5.89571 13.4419C5.88958 13.3928 5.89571 13.356 5.88345 13.3069C5.61356 12.4911 5.41115 11.6631 5.25781 10.8167C5.96932 10.8964 6.68082 10.9516 7.39846 10.9516C8.1161 10.9516 8.83373 10.8964 9.5391 10.8167Z" fill="#232323"/>
<path d="M9.70707 9.80693C8.17299 10.0005 6.62456 10.0005 5.09048 9.80693C4.89692 8.27284 4.89692 6.72442 5.09048 5.19033C6.62456 4.99678 8.17299 4.99678 9.70707 5.19033C9.90062 6.72442 9.90062 8.27284 9.70707 9.80693Z" fill="#232323"/>
</svg>
