<svg width="22" height="23" viewBox="0 0 22 23" fill="none" xmlns="http://www.w3.org/2000/svg">
<path d="M18.7213 1.65092C20.0762 0.853931 21.7898 2.00957 21.5507 3.60356L19.1995 19.0254C19.08 19.6231 18.7612 20.1013 18.2431 20.4201C17.9243 20.5795 17.6055 20.6592 17.2867 20.6592C17.0477 20.6592 16.8086 20.6193 16.5695 20.4998L12.1063 18.6667L10.3529 21.0178C9.27697 22.4923 6.92585 21.7351 6.92585 19.8622V16.5148L2.34314 14.6419C0.868703 14.0442 0.749154 12.0118 2.14389 11.2148L18.7213 1.65092ZM8.83863 19.8622L10.2732 17.9096L8.83863 17.3118V19.8622ZM17.2867 18.7464L19.6777 3.28476L3.10028 12.8487L7.36419 14.6419L15.8123 7.30957C16.3702 6.79153 17.1672 7.50882 16.7687 8.14641L11.1499 16.196L17.2867 18.7464Z" fill="#110B39"/>
</svg>
